<?xml version="1.0" encoding="UTF-8" standalone="no"?>
<!-- This is a Stata 18.5 generated SVG file (http://www.stata.com) -->

<svg version="1.1" width="7.500in" height="4.500in" viewBox="0 0 5400 3240" xmlns="http://www.w3.org/2000/svg" xmlns:xlink="http://www.w3.org/1999/xlink">
	<desc>Stata Graph - Figure_13b</desc>
	<rect x="0" y="0" width="5400" height="3240" style="fill:#FFFFFF;stroke:none"/>
	<rect x="0.00" y="0.00" width="5400.00" height="3240.00" style="fill:#FFFFFF"/>
	<rect x="3.24" y="3.24" width="5393.52" height="3233.52" style="fill:none;stroke:#FFFFFF;stroke-width:6.48"/>
	<rect x="618.30" y="113.40" width="4668.30" height="2653.26" style="fill:#FFFFFF"/>
	<rect x="621.54" y="116.64" width="4661.82" height="2646.78" style="fill:none;stroke:#FFFFFF;stroke-width:6.48"/>
	<line x1="618.30" y1="2766.66" x2="618.30" y2="2701.86" style="stroke:#F0F0F0;stroke-width:9.72"/>
	<line x1="618.30" y1="2669.46" x2="618.30" y2="2604.66" style="stroke:#F0F0F0;stroke-width:9.72"/>
	<line x1="618.30" y1="2572.26" x2="618.30" y2="2507.46" style="stroke:#F0F0F0;stroke-width:9.72"/>
	<line x1="618.30" y1="2475.06" x2="618.30" y2="2410.26" style="stroke:#F0F0F0;stroke-width:9.72"/>
	<line x1="618.30" y1="2377.86" x2="618.30" y2="2313.06" style="stroke:#F0F0F0;stroke-width:9.72"/>
	<line x1="618.30" y1="2280.66" x2="618.30" y2="2215.86" style="stroke:#F0F0F0;stroke-width:9.72"/>
	<line x1="618.30" y1="2183.46" x2="618.30" y2="2118.66" style="stroke:#F0F0F0;stroke-width:9.72"/>
	<line x1="618.30" y1="2086.26" x2="618.30" y2="2021.46" style="stroke:#F0F0F0;stroke-width:9.72"/>
	<line x1="618.30" y1="1989.06" x2="618.30" y2="1924.26" style="stroke:#F0F0F0;stroke-width:9.72"/>
	<line x1="618.30" y1="1891.86" x2="618.30" y2="1827.06" style="stroke:#F0F0F0;stroke-width:9.72"/>
	<line x1="618.30" y1="1794.66" x2="618.30" y2="1729.86" style="stroke:#F0F0F0;stroke-width:9.72"/>
	<line x1="618.30" y1="1697.46" x2="618.30" y2="1632.66" style="stroke:#F0F0F0;stroke-width:9.72"/>
	<line x1="618.30" y1="1600.26" x2="618.30" y2="1535.46" style="stroke:#F0F0F0;stroke-width:9.72"/>
	<line x1="618.30" y1="1503.06" x2="618.30" y2="1438.26" style="stroke:#F0F0F0;stroke-width:9.72"/>
	<line x1="618.30" y1="1405.86" x2="618.30" y2="1341.06" style="stroke:#F0F0F0;stroke-width:9.72"/>
	<line x1="618.30" y1="1308.66" x2="618.30" y2="1243.86" style="stroke:#F0F0F0;stroke-width:9.72"/>
	<line x1="618.30" y1="1211.46" x2="618.30" y2="1146.66" style="stroke:#F0F0F0;stroke-width:9.72"/>
	<line x1="618.30" y1="1114.26" x2="618.30" y2="1049.46" style="stroke:#F0F0F0;stroke-width:9.72"/>
	<line x1="618.30" y1="1017.06" x2="618.30" y2="952.26" style="stroke:#F0F0F0;stroke-width:9.72"/>
	<line x1="618.30" y1="919.86" x2="618.30" y2="855.06" style="stroke:#F0F0F0;stroke-width:9.72"/>
	<line x1="618.30" y1="822.66" x2="618.30" y2="757.86" style="stroke:#F0F0F0;stroke-width:9.72"/>
	<line x1="618.30" y1="725.46" x2="618.30" y2="660.66" style="stroke:#F0F0F0;stroke-width:9.72"/>
	<line x1="618.30" y1="628.26" x2="618.30" y2="563.46" style="stroke:#F0F0F0;stroke-width:9.72"/>
	<line x1="618.30" y1="531.06" x2="618.30" y2="466.26" style="stroke:#F0F0F0;stroke-width:9.72"/>
	<line x1="618.30" y1="433.86" x2="618.30" y2="369.06" style="stroke:#F0F0F0;stroke-width:9.72"/>
	<line x1="618.30" y1="336.66" x2="618.30" y2="271.86" style="stroke:#F0F0F0;stroke-width:9.72"/>
	<line x1="618.30" y1="239.46" x2="618.30" y2="174.66" style="stroke:#F0F0F0;stroke-width:9.72"/>
	<line x1="618.30" y1="142.26" x2="618.30" y2="113.40" style="stroke:#F0F0F0;stroke-width:9.72"/>
	<line x1="1757.03" y1="2766.66" x2="1757.03" y2="2701.86" style="stroke:#F0F0F0;stroke-width:9.72"/>
	<line x1="1757.03" y1="2669.46" x2="1757.03" y2="2604.66" style="stroke:#F0F0F0;stroke-width:9.72"/>
	<line x1="1757.03" y1="2572.26" x2="1757.03" y2="2507.46" style="stroke:#F0F0F0;stroke-width:9.72"/>
	<line x1="1757.03" y1="2475.06" x2="1757.03" y2="2410.26" style="stroke:#F0F0F0;stroke-width:9.72"/>
	<line x1="1757.03" y1="2377.86" x2="1757.03" y2="2313.06" style="stroke:#F0F0F0;stroke-width:9.72"/>
	<line x1="1757.03" y1="2280.66" x2="1757.03" y2="2215.86" style="stroke:#F0F0F0;stroke-width:9.72"/>
	<line x1="1757.03" y1="2183.46" x2="1757.03" y2="2118.66" style="stroke:#F0F0F0;stroke-width:9.72"/>
	<line x1="1757.03" y1="2086.26" x2="1757.03" y2="2021.46" style="stroke:#F0F0F0;stroke-width:9.72"/>
	<line x1="1757.03" y1="1989.06" x2="1757.03" y2="1924.26" style="stroke:#F0F0F0;stroke-width:9.72"/>
	<line x1="1757.03" y1="1891.86" x2="1757.03" y2="1827.06" style="stroke:#F0F0F0;stroke-width:9.72"/>
	<line x1="1757.03" y1="1794.66" x2="1757.03" y2="1729.86" style="stroke:#F0F0F0;stroke-width:9.72"/>
	<line x1="1757.03" y1="1697.46" x2="1757.03" y2="1632.66" style="stroke:#F0F0F0;stroke-width:9.72"/>
	<line x1="1757.03" y1="1600.26" x2="1757.03" y2="1535.46" style="stroke:#F0F0F0;stroke-width:9.72"/>
	<line x1="1757.03" y1="1503.06" x2="1757.03" y2="1438.26" style="stroke:#F0F0F0;stroke-width:9.72"/>
	<line x1="1757.03" y1="1405.86" x2="1757.03" y2="1341.06" style="stroke:#F0F0F0;stroke-width:9.72"/>
	<line x1="1757.03" y1="1308.66" x2="1757.03" y2="1243.86" style="stroke:#F0F0F0;stroke-width:9.72"/>
	<line x1="1757.03" y1="1211.46" x2="1757.03" y2="1146.66" style="stroke:#F0F0F0;stroke-width:9.72"/>
	<line x1="1757.03" y1="1114.26" x2="1757.03" y2="1049.46" style="stroke:#F0F0F0;stroke-width:9.72"/>
	<line x1="1757.03" y1="1017.06" x2="1757.03" y2="952.26" style="stroke:#F0F0F0;stroke-width:9.72"/>
	<line x1="1757.03" y1="919.86" x2="1757.03" y2="855.06" style="stroke:#F0F0F0;stroke-width:9.72"/>
	<line x1="1757.03" y1="822.66" x2="1757.03" y2="757.86" style="stroke:#F0F0F0;stroke-width:9.72"/>
	<line x1="1757.03" y1="725.46" x2="1757.03" y2="660.66" style="stroke:#F0F0F0;stroke-width:9.72"/>
	<line x1="1757.03" y1="628.26" x2="1757.03" y2="563.46" style="stroke:#F0F0F0;stroke-width:9.72"/>
	<line x1="1757.03" y1="531.06" x2="1757.03" y2="466.26" style="stroke:#F0F0F0;stroke-width:9.72"/>
	<line x1="1757.03" y1="433.86" x2="1757.03" y2="369.06" style="stroke:#F0F0F0;stroke-width:9.72"/>
	<line x1="1757.03" y1="336.66" x2="1757.03" y2="271.86" style="stroke:#F0F0F0;stroke-width:9.72"/>
	<line x1="1757.03" y1="239.46" x2="1757.03" y2="174.66" style="stroke:#F0F0F0;stroke-width:9.72"/>
	<line x1="1757.03" y1="142.26" x2="1757.03" y2="113.40" style="stroke:#F0F0F0;stroke-width:9.72"/>
	<line x1="2895.75" y1="2766.66" x2="2895.75" y2="2701.86" style="stroke:#F0F0F0;stroke-width:9.72"/>
	<line x1="2895.75" y1="2669.46" x2="2895.75" y2="2604.66" style="stroke:#F0F0F0;stroke-width:9.72"/>
	<line x1="2895.75" y1="2572.26" x2="2895.75" y2="2507.46" style="stroke:#F0F0F0;stroke-width:9.72"/>
	<line x1="2895.75" y1="2475.06" x2="2895.75" y2="2410.26" style="stroke:#F0F0F0;stroke-width:9.72"/>
	<line x1="2895.75" y1="2377.86" x2="2895.75" y2="2313.06" style="stroke:#F0F0F0;stroke-width:9.72"/>
	<line x1="2895.75" y1="2280.66" x2="2895.75" y2="2215.86" style="stroke:#F0F0F0;stroke-width:9.72"/>
	<line x1="2895.75" y1="2183.46" x2="2895.75" y2="2118.66" style="stroke:#F0F0F0;stroke-width:9.72"/>
	<line x1="2895.75" y1="2086.26" x2="2895.75" y2="2021.46" style="stroke:#F0F0F0;stroke-width:9.72"/>
	<line x1="2895.75" y1="1989.06" x2="2895.75" y2="1924.26" style="stroke:#F0F0F0;stroke-width:9.72"/>
	<line x1="2895.75" y1="1891.86" x2="2895.75" y2="1827.06" style="stroke:#F0F0F0;stroke-width:9.72"/>
	<line x1="2895.75" y1="1794.66" x2="2895.75" y2="1729.86" style="stroke:#F0F0F0;stroke-width:9.72"/>
	<line x1="2895.75" y1="1697.46" x2="2895.75" y2="1632.66" style="stroke:#F0F0F0;stroke-width:9.72"/>
	<line x1="2895.75" y1="1600.26" x2="2895.75" y2="1535.46" style="stroke:#F0F0F0;stroke-width:9.72"/>
	<line x1="2895.75" y1="1503.06" x2="2895.75" y2="1438.26" style="stroke:#F0F0F0;stroke-width:9.72"/>
	<line x1="2895.75" y1="1405.86" x2="2895.75" y2="1341.06" style="stroke:#F0F0F0;stroke-width:9.72"/>
	<line x1="2895.75" y1="1308.66" x2="2895.75" y2="1243.86" style="stroke:#F0F0F0;stroke-width:9.72"/>
	<line x1="2895.75" y1="1211.46" x2="2895.75" y2="1146.66" style="stroke:#F0F0F0;stroke-width:9.72"/>
	<line x1="2895.75" y1="1114.26" x2="2895.75" y2="1049.46" style="stroke:#F0F0F0;stroke-width:9.72"/>
	<line x1="2895.75" y1="1017.06" x2="2895.75" y2="952.26" style="stroke:#F0F0F0;stroke-width:9.72"/>
	<line x1="2895.75" y1="919.86" x2="2895.75" y2="855.06" style="stroke:#F0F0F0;stroke-width:9.72"/>
	<line x1="2895.75" y1="822.66" x2="2895.75" y2="757.86" style="stroke:#F0F0F0;stroke-width:9.72"/>
	<line x1="2895.75" y1="725.46" x2="2895.75" y2="660.66" style="stroke:#F0F0F0;stroke-width:9.72"/>
	<line x1="2895.75" y1="628.26" x2="2895.75" y2="563.46" style="stroke:#F0F0F0;stroke-width:9.72"/>
	<line x1="2895.75" y1="531.06" x2="2895.75" y2="466.26" style="stroke:#F0F0F0;stroke-width:9.72"/>
	<line x1="2895.75" y1="433.86" x2="2895.75" y2="369.06" style="stroke:#F0F0F0;stroke-width:9.72"/>
	<line x1="2895.75" y1="336.66" x2="2895.75" y2="271.86" style="stroke:#F0F0F0;stroke-width:9.72"/>
	<line x1="2895.75" y1="239.46" x2="2895.75" y2="174.66" style="stroke:#F0F0F0;stroke-width:9.72"/>
	<line x1="2895.75" y1="142.26" x2="2895.75" y2="113.40" style="stroke:#F0F0F0;stroke-width:9.72"/>
	<line x1="4034.48" y1="2766.66" x2="4034.48" y2="2701.86" style="stroke:#F0F0F0;stroke-width:9.72"/>
	<line x1="4034.48" y1="2669.46" x2="4034.48" y2="2604.66" style="stroke:#F0F0F0;stroke-width:9.72"/>
	<line x1="4034.48" y1="2572.26" x2="4034.48" y2="2507.46" style="stroke:#F0F0F0;stroke-width:9.72"/>
	<line x1="4034.48" y1="2475.06" x2="4034.48" y2="2410.26" style="stroke:#F0F0F0;stroke-width:9.72"/>
	<line x1="4034.48" y1="2377.86" x2="4034.48" y2="2313.06" style="stroke:#F0F0F0;stroke-width:9.72"/>
	<line x1="4034.48" y1="2280.66" x2="4034.48" y2="2215.86" style="stroke:#F0F0F0;stroke-width:9.72"/>
	<line x1="4034.48" y1="2183.46" x2="4034.48" y2="2118.66" style="stroke:#F0F0F0;stroke-width:9.72"/>
	<line x1="4034.48" y1="2086.26" x2="4034.48" y2="2021.46" style="stroke:#F0F0F0;stroke-width:9.72"/>
	<line x1="4034.48" y1="1989.06" x2="4034.48" y2="1924.26" style="stroke:#F0F0F0;stroke-width:9.72"/>
	<line x1="4034.48" y1="1891.86" x2="4034.48" y2="1827.06" style="stroke:#F0F0F0;stroke-width:9.72"/>
	<line x1="4034.48" y1="1794.66" x2="4034.48" y2="1729.86" style="stroke:#F0F0F0;stroke-width:9.72"/>
	<line x1="4034.48" y1="1697.46" x2="4034.48" y2="1632.66" style="stroke:#F0F0F0;stroke-width:9.72"/>
	<line x1="4034.48" y1="1600.26" x2="4034.48" y2="1535.46" style="stroke:#F0F0F0;stroke-width:9.72"/>
	<line x1="4034.48" y1="1503.06" x2="4034.48" y2="1438.26" style="stroke:#F0F0F0;stroke-width:9.72"/>
	<line x1="4034.48" y1="1405.86" x2="4034.48" y2="1341.06" style="stroke:#F0F0F0;stroke-width:9.72"/>
	<line x1="4034.48" y1="1308.66" x2="4034.48" y2="1243.86" style="stroke:#F0F0F0;stroke-width:9.72"/>
	<line x1="4034.48" y1="1211.46" x2="4034.48" y2="1146.66" style="stroke:#F0F0F0;stroke-width:9.72"/>
	<line x1="4034.48" y1="1114.26" x2="4034.48" y2="1049.46" style="stroke:#F0F0F0;stroke-width:9.72"/>
	<line x1="4034.48" y1="1017.06" x2="4034.48" y2="952.26" style="stroke:#F0F0F0;stroke-width:9.72"/>
	<line x1="4034.48" y1="919.86" x2="4034.48" y2="855.06" style="stroke:#F0F0F0;stroke-width:9.72"/>
	<line x1="4034.48" y1="822.66" x2="4034.48" y2="757.86" style="stroke:#F0F0F0;stroke-width:9.72"/>
	<line x1="4034.48" y1="725.46" x2="4034.48" y2="660.66" style="stroke:#F0F0F0;stroke-width:9.72"/>
	<line x1="4034.48" y1="628.26" x2="4034.48" y2="563.46" style="stroke:#F0F0F0;stroke-width:9.72"/>
	<line x1="4034.48" y1="531.06" x2="4034.48" y2="466.26" style="stroke:#F0F0F0;stroke-width:9.72"/>
	<line x1="4034.48" y1="433.86" x2="4034.48" y2="369.06" style="stroke:#F0F0F0;stroke-width:9.72"/>
	<line x1="4034.48" y1="336.66" x2="4034.48" y2="271.86" style="stroke:#F0F0F0;stroke-width:9.72"/>
	<line x1="4034.48" y1="239.46" x2="4034.48" y2="174.66" style="stroke:#F0F0F0;stroke-width:9.72"/>
	<line x1="4034.48" y1="142.26" x2="4034.48" y2="113.40" style="stroke:#F0F0F0;stroke-width:9.72"/>
	<line x1="5173.20" y1="2766.66" x2="5173.20" y2="2701.86" style="stroke:#F0F0F0;stroke-width:9.72"/>
	<line x1="5173.20" y1="2669.46" x2="5173.20" y2="2604.66" style="stroke:#F0F0F0;stroke-width:9.72"/>
	<line x1="5173.20" y1="2572.26" x2="5173.20" y2="2507.46" style="stroke:#F0F0F0;stroke-width:9.72"/>
	<line x1="5173.20" y1="2475.06" x2="5173.20" y2="2410.26" style="stroke:#F0F0F0;stroke-width:9.72"/>
	<line x1="5173.20" y1="2377.86" x2="5173.20" y2="2313.06" style="stroke:#F0F0F0;stroke-width:9.72"/>
	<line x1="5173.20" y1="2280.66" x2="5173.20" y2="2215.86" style="stroke:#F0F0F0;stroke-width:9.72"/>
	<line x1="5173.20" y1="2183.46" x2="5173.20" y2="2118.66" style="stroke:#F0F0F0;stroke-width:9.72"/>
	<line x1="5173.20" y1="2086.26" x2="5173.20" y2="2021.46" style="stroke:#F0F0F0;stroke-width:9.72"/>
	<line x1="5173.20" y1="1989.06" x2="5173.20" y2="1924.26" style="stroke:#F0F0F0;stroke-width:9.72"/>
	<line x1="5173.20" y1="1891.86" x2="5173.20" y2="1827.06" style="stroke:#F0F0F0;stroke-width:9.72"/>
	<line x1="5173.20" y1="1794.66" x2="5173.20" y2="1729.86" style="stroke:#F0F0F0;stroke-width:9.72"/>
	<line x1="5173.20" y1="1697.46" x2="5173.20" y2="1632.66" style="stroke:#F0F0F0;stroke-width:9.72"/>
	<line x1="5173.20" y1="1600.26" x2="5173.20" y2="1535.46" style="stroke:#F0F0F0;stroke-width:9.72"/>
	<line x1="5173.20" y1="1503.06" x2="5173.20" y2="1438.26" style="stroke:#F0F0F0;stroke-width:9.72"/>
	<line x1="5173.20" y1="1405.86" x2="5173.20" y2="1341.06" style="stroke:#F0F0F0;stroke-width:9.72"/>
	<line x1="5173.20" y1="1308.66" x2="5173.20" y2="1243.86" style="stroke:#F0F0F0;stroke-width:9.72"/>
	<line x1="5173.20" y1="1211.46" x2="5173.20" y2="1146.66" style="stroke:#F0F0F0;stroke-width:9.72"/>
	<line x1="5173.20" y1="1114.26" x2="5173.20" y2="1049.46" style="stroke:#F0F0F0;stroke-width:9.72"/>
	<line x1="5173.20" y1="1017.06" x2="5173.20" y2="952.26" style="stroke:#F0F0F0;stroke-width:9.72"/>
	<line x1="5173.20" y1="919.86" x2="5173.20" y2="855.06" style="stroke:#F0F0F0;stroke-width:9.72"/>
	<line x1="5173.20" y1="822.66" x2="5173.20" y2="757.86" style="stroke:#F0F0F0;stroke-width:9.72"/>
	<line x1="5173.20" y1="725.46" x2="5173.20" y2="660.66" style="stroke:#F0F0F0;stroke-width:9.72"/>
	<line x1="5173.20" y1="628.26" x2="5173.20" y2="563.46" style="stroke:#F0F0F0;stroke-width:9.72"/>
	<line x1="5173.20" y1="531.06" x2="5173.20" y2="466.26" style="stroke:#F0F0F0;stroke-width:9.72"/>
	<line x1="5173.20" y1="433.86" x2="5173.20" y2="369.06" style="stroke:#F0F0F0;stroke-width:9.72"/>
	<line x1="5173.20" y1="336.66" x2="5173.20" y2="271.86" style="stroke:#F0F0F0;stroke-width:9.72"/>
	<line x1="5173.20" y1="239.46" x2="5173.20" y2="174.66" style="stroke:#F0F0F0;stroke-width:9.72"/>
	<line x1="5173.20" y1="142.26" x2="5173.20" y2="113.40" style="stroke:#F0F0F0;stroke-width:9.72"/>
	<rect x="618.30" y="2592.68" width="4427.83" height="50.46" style="fill:#1A85FF"/>
	<rect x="621.54" y="2595.92" width="4421.35" height="43.98" style="fill:none;stroke:#1A85FF;stroke-width:6.48"/>
	<rect x="618.30" y="2508.64" width="2538.34" height="50.29" style="fill:#1A85FF"/>
	<rect x="621.54" y="2511.88" width="2531.86" height="43.81" style="fill:none;stroke:#1A85FF;stroke-width:6.48"/>
	<rect x="618.30" y="2424.43" width="2167.26" height="50.46" style="fill:#1A85FF"/>
	<rect x="621.54" y="2427.67" width="2160.78" height="43.98" style="fill:none;stroke:#1A85FF;stroke-width:6.48"/>
	<rect x="618.30" y="2340.39" width="1720.91" height="50.29" style="fill:#1A85FF"/>
	<rect x="621.54" y="2343.63" width="1714.43" height="43.81" style="fill:none;stroke:#1A85FF;stroke-width:6.48"/>
	<rect x="618.30" y="2256.19" width="1541.03" height="50.46" style="fill:#1A85FF"/>
	<rect x="621.54" y="2259.43" width="1534.54" height="43.98" style="fill:none;stroke:#1A85FF;stroke-width:6.48"/>
	<rect x="618.30" y="2171.98" width="1403.49" height="50.46" style="fill:#1A85FF"/>
	<rect x="621.54" y="2175.22" width="1397.01" height="43.98" style="fill:none;stroke:#1A85FF;stroke-width:6.48"/>
	<rect x="618.30" y="2087.94" width="959.34" height="50.29" style="fill:#1A85FF"/>
	<rect x="621.54" y="2091.18" width="952.86" height="43.81" style="fill:none;stroke:#1A85FF;stroke-width:6.48"/>
	<rect x="618.30" y="2003.74" width="948.54" height="50.46" style="fill:#1A85FF"/>
	<rect x="621.54" y="2006.98" width="942.06" height="43.98" style="fill:none;stroke:#1A85FF;stroke-width:6.48"/>
	<rect x="618.30" y="1919.70" width="927.28" height="50.29" style="fill:#1A85FF"/>
	<rect x="621.54" y="1922.94" width="920.80" height="43.81" style="fill:none;stroke:#1A85FF;stroke-width:6.48"/>
	<rect x="618.30" y="1835.49" width="762.24" height="50.46" style="fill:#1A85FF"/>
	<rect x="621.54" y="1838.73" width="755.76" height="43.98" style="fill:none;stroke:#1A85FF;stroke-width:6.48"/>
	<rect x="618.30" y="1751.29" width="733.73" height="50.46" style="fill:#1A85FF"/>
	<rect x="621.54" y="1754.53" width="727.25" height="43.98" style="fill:none;stroke:#1A85FF;stroke-width:6.48"/>
	<rect x="618.30" y="1667.25" width="621.51" height="50.29" style="fill:#1A85FF"/>
	<rect x="621.54" y="1670.49" width="615.03" height="43.81" style="fill:none;stroke:#1A85FF;stroke-width:6.48"/>
	<rect x="618.30" y="1583.04" width="604.97" height="50.46" style="fill:#1A85FF"/>
	<rect x="621.54" y="1586.28" width="598.49" height="43.98" style="fill:none;stroke:#1A85FF;stroke-width:6.48"/>
	<rect x="618.30" y="1499.01" width="547.26" height="50.29" style="fill:#1A85FF"/>
	<rect x="621.54" y="1502.25" width="540.78" height="43.81" style="fill:none;stroke:#1A85FF;stroke-width:6.48"/>
	<rect x="618.30" y="1414.80" width="357.41" height="50.46" style="fill:#1A85FF"/>
	<rect x="621.54" y="1418.04" width="350.93" height="43.98" style="fill:none;stroke:#1A85FF;stroke-width:6.48"/>
	<rect x="618.30" y="1330.59" width="343.58" height="50.46" style="fill:#1A85FF"/>
	<rect x="621.54" y="1333.83" width="337.10" height="43.98" style="fill:none;stroke:#1A85FF;stroke-width:6.48"/>
	<rect x="618.30" y="1246.56" width="282.32" height="50.29" style="fill:#1A85FF"/>
	<rect x="621.54" y="1249.80" width="275.84" height="43.81" style="fill:none;stroke:#1A85FF;stroke-width:6.48"/>
	<rect x="618.30" y="1162.35" width="268.31" height="50.46" style="fill:#1A85FF"/>
	<rect x="621.54" y="1165.59" width="261.83" height="43.98" style="fill:none;stroke:#1A85FF;stroke-width:6.48"/>
	<rect x="618.30" y="1078.31" width="261.39" height="50.29" style="fill:#1A85FF"/>
	<rect x="621.54" y="1081.55" width="254.91" height="43.81" style="fill:none;stroke:#1A85FF;stroke-width:6.48"/>
	<rect x="618.30" y="994.11" width="245.87" height="50.46" style="fill:#1A85FF"/>
	<rect x="621.54" y="997.35" width="239.39" height="43.98" style="fill:none;stroke:#1A85FF;stroke-width:6.48"/>
	<rect x="618.30" y="909.90" width="238.44" height="50.46" style="fill:#1A85FF"/>
	<rect x="621.54" y="913.14" width="231.96" height="43.98" style="fill:none;stroke:#1A85FF;stroke-width:6.48"/>
	<rect x="618.30" y="825.86" width="198.62" height="50.29" style="fill:#1A85FF"/>
	<rect x="621.54" y="829.10" width="192.14" height="43.81" style="fill:none;stroke:#1A85FF;stroke-width:6.48"/>
	<rect x="618.30" y="741.66" width="141.58" height="50.46" style="fill:#1A85FF"/>
	<rect x="621.54" y="744.90" width="135.10" height="43.98" style="fill:none;stroke:#1A85FF;stroke-width:6.48"/>
	<rect x="618.30" y="657.62" width="129.77" height="50.29" style="fill:#1A85FF"/>
	<rect x="621.54" y="660.86" width="123.29" height="43.81" style="fill:none;stroke:#1A85FF;stroke-width:6.48"/>
	<rect x="618.30" y="573.41" width="82.35" height="50.46" style="fill:#1A85FF"/>
	<rect x="621.54" y="576.65" width="75.87" height="43.98" style="fill:none;stroke:#1A85FF;stroke-width:6.48"/>
	<rect x="618.30" y="489.38" width="81.17" height="50.29" style="fill:#1A85FF"/>
	<rect x="621.54" y="492.62" width="74.69" height="43.81" style="fill:none;stroke:#1A85FF;stroke-width:6.48"/>
	<rect x="618.30" y="405.17" width="10.13" height="50.29" style="fill:#1A85FF"/>
	<rect x="621.54" y="408.41" width="3.64" height="43.81" style="fill:none;stroke:#1A85FF;stroke-width:6.48"/>
	<rect x="618.30" y="320.96" width="6.58" height="50.46" style="fill:#1A85FF"/>
	<rect x="621.54" y="324.20" width="0.10" height="43.98" style="fill:none;stroke:#1A85FF;stroke-width:6.48"/>
	<rect x="618.30" y="236.93" width="2.53" height="50.29" style="fill:#1A85FF"/>
	<rect x="617.59" y="240.17" width="3.95" height="43.81" style="fill:none;stroke:#1A85FF;stroke-width:6.48"/>
	<path d="M840.29 763.93 L879.69 685.13 L919.10 763.93 Z M879.69 763.93 L879.69 842.74" transform="rotate(-90.00 879.69 763.93)" style="fill:#FF0000;stroke:#FF0000;stroke-width:6.48"/>
	<line x1="618.30" y1="2766.66" x2="5286.60" y2="2766.66" style="stroke:#000000;stroke-width:6.48"/>
	<line x1="618.30" y1="2766.66" x2="618.30" y2="2811.54" style="stroke:#000000;stroke-width:6.48"/>
	<text x="618.30" y="2912.86" style="font-family:'Helvetica';font-size:112.56px;fill:#000000" text-anchor="middle">0</text>
	<line x1="1757.03" y1="2766.66" x2="1757.03" y2="2811.54" style="stroke:#000000;stroke-width:6.48"/>
	<text x="1757.03" y="2912.86" style="font-family:'Helvetica';font-size:112.56px;fill:#000000" text-anchor="middle">.2</text>
	<line x1="2895.75" y1="2766.66" x2="2895.75" y2="2811.54" style="stroke:#000000;stroke-width:6.48"/>
	<text x="2895.75" y="2912.86" style="font-family:'Helvetica';font-size:112.56px;fill:#000000" text-anchor="middle">.4</text>
	<line x1="4034.48" y1="2766.66" x2="4034.48" y2="2811.54" style="stroke:#000000;stroke-width:6.48"/>
	<text x="4034.48" y="2912.86" style="font-family:'Helvetica';font-size:112.56px;fill:#000000" text-anchor="middle">.6</text>
	<line x1="5173.20" y1="2766.66" x2="5173.20" y2="2811.54" style="stroke:#000000;stroke-width:6.48"/>
	<text x="5173.20" y="2912.86" style="font-family:'Helvetica';font-size:112.56px;fill:#000000" text-anchor="middle">.8</text>
	<text x="2952.45" y="3070.31" style="font-family:'Helvetica';font-size:112.56px;fill:#000000" text-anchor="middle">Ratio of Post- and Pre-October MSPE</text>
	<line x1="618.30" y1="2766.66" x2="618.30" y2="113.40" style="stroke:#000000;stroke-width:6.48"/>
	<text x="573.24" y="2641.65" style="font-family:'Helvetica';font-size:67.50px;fill:#000000" text-anchor="end">Hungary</text>
	<text x="573.24" y="2557.45" style="font-family:'Helvetica';font-size:67.50px;fill:#000000" text-anchor="end">Spain</text>
	<text x="573.24" y="2473.41" style="font-family:'Helvetica';font-size:67.50px;fill:#000000" text-anchor="end">Switzerland</text>
	<text x="573.24" y="2389.20" style="font-family:'Helvetica';font-size:67.50px;fill:#000000" text-anchor="end">Italy</text>
	<text x="573.24" y="2305.00" style="font-family:'Helvetica';font-size:67.50px;fill:#000000" text-anchor="end">Greece</text>
	<text x="573.24" y="2220.96" style="font-family:'Helvetica';font-size:67.50px;fill:#000000" text-anchor="end">Austria</text>
	<text x="573.24" y="2136.75" style="font-family:'Helvetica';font-size:67.50px;fill:#000000" text-anchor="end">Cyprus</text>
	<text x="573.24" y="2052.72" style="font-family:'Helvetica';font-size:67.50px;fill:#000000" text-anchor="end">Slovenia</text>
	<text x="573.24" y="1968.51" style="font-family:'Helvetica';font-size:67.50px;fill:#000000" text-anchor="end">Poland</text>
	<text x="573.24" y="1884.30" style="font-family:'Helvetica';font-size:67.50px;fill:#000000" text-anchor="end">France</text>
	<text x="573.24" y="1800.27" style="font-family:'Helvetica';font-size:67.50px;fill:#000000" text-anchor="end">Liechtenstein</text>
	<text x="573.24" y="1716.06" style="font-family:'Helvetica';font-size:67.50px;fill:#000000" text-anchor="end">Estonia</text>
	<text x="573.24" y="1632.02" style="font-family:'Helvetica';font-size:67.50px;fill:#000000" text-anchor="end">Czechia</text>
	<text x="573.24" y="1547.82" style="font-family:'Helvetica';font-size:67.50px;fill:#000000" text-anchor="end">Lithuania</text>
	<text x="573.24" y="1463.61" style="font-family:'Helvetica';font-size:67.50px;fill:#000000" text-anchor="end">Netherlands</text>
	<text x="573.24" y="1379.57" style="font-family:'Helvetica';font-size:67.50px;fill:#000000" text-anchor="end">Romania</text>
	<text x="573.24" y="1295.37" style="font-family:'Helvetica';font-size:67.50px;fill:#000000" text-anchor="end">Croatia</text>
	<text x="573.24" y="1211.33" style="font-family:'Helvetica';font-size:67.50px;fill:#000000" text-anchor="end">Bulgaria</text>
	<text x="573.24" y="1127.12" style="font-family:'Helvetica';font-size:67.50px;fill:#000000" text-anchor="end">Slovakia</text>
	<text x="573.24" y="1042.92" style="font-family:'Helvetica';font-size:67.50px;fill:#000000" text-anchor="end">Norway</text>
	<text x="573.24" y="958.88" style="font-family:'Helvetica';font-size:67.50px;fill:#000000" text-anchor="end">Finland</text>
	<text x="573.24" y="874.67" style="font-family:'Helvetica';font-size:67.50px;fill:#000000" text-anchor="end">Portugal</text>
	<text x="573.24" y="790.64" style="font-family:'Helvetica';font-size:67.50px;fill:#000000" text-anchor="end">Malta</text>
	<text x="573.24" y="706.43" style="font-family:'Helvetica';font-size:67.50px;fill:#000000" text-anchor="end">Belgium</text>
	<text x="573.24" y="622.22" style="font-family:'Helvetica';font-size:67.50px;fill:#000000" text-anchor="end">Iceland</text>
	<text x="573.24" y="538.19" style="font-family:'Helvetica';font-size:67.50px;fill:#000000" text-anchor="end">Latvia</text>
	<text x="573.24" y="453.98" style="font-family:'Helvetica';font-size:67.50px;fill:#000000" text-anchor="end">Sweden</text>
	<text x="573.24" y="369.94" style="font-family:'Helvetica';font-size:67.50px;fill:#000000" text-anchor="end">Ireland</text>
	<text x="573.24" y="285.74" style="font-family:'Helvetica';font-size:67.50px;fill:#000000" text-anchor="end">Denmark</text>
</svg>
